<svg id="Layer_3" data-name="Layer 3" xmlns="http://www.w3.org/2000/svg" viewBox="0 0 496 512"><defs><style>.cls-1{fill:#fff;}</style></defs><title>award</title><path class="cls-1" d="M475.33,63H385.78V23c0-13.3-9.22-24-20.67-24H130.89c-11.45,0-20.67,10.7-20.67,24V63H20.67C9.21,63,0,73.7,0,87v56c0,35.7,19.38,72.4,53.3,100.7A186,186,0,0,0,148,285.4c27,52.1,58.65,73.6,58.65,73.6v72H165.33c-30.39,0-55.11,20.7-55.11,56v12c0,6.6,4.65,12,10.34,12H375.44c5.69,0,10.34-5.4,10.34-12V487c0-35.3-24.72-56-55.11-56H289.33V359s31.61-21.5,58.65-73.6a185.36,185.36,0,0,0,94.72-41.7c33.84-28.3,53.3-65,53.3-100.7V87C496,73.7,486.79,63,475.33,63ZM85.51,191.8c-21-17.6-30.4-37.2-30.4-48.8V127h55.28a413.53,413.53,0,0,0,11,86.2A132.73,132.73,0,0,1,85.51,191.8ZM440.89,143c0,16.1-15.24,36.1-30.4,48.8a133.32,133.32,0,0,1-36,21.4,412.9,412.9,0,0,0,11-86.2h55.37Z" transform="translate(0 1)"/></svg>