<?xml version="1.0" encoding="utf-8"?>
<!-- Generator: Adobe Illustrator 23.0.0, SVG Export Plug-In . SVG Version: 6.00 Build 0)  -->
<svg version="1.1" id="Layer_1" xmlns="http://www.w3.org/2000/svg" xmlns:xlink="http://www.w3.org/1999/xlink" x="0px" y="0px"
	 viewBox="0 0 512 512" style="enable-background:new 0 0 512 512;" xml:space="preserve">
<style type="text/css">
	.st0{fill:#4A2A09;}
</style>
<title>contactMail</title>
<path class="st0" d="M176,216h160c8.8,0,16-7.2,16-16v-16c0-8.8-7.2-16-16-16H176c-8.8,0-16,7.2-16,16v16
	C160,208.8,167.2,216,176,216z M160,296c0,8.8,7.2,16,16,16h160c8.8,0,16-7.2,16-16v-16c0-8.8-7.2-16-16-16H176c-8.8,0-16,7.2-16,16
	V296z M256,417.1c-16.8,0-33.2-5.3-46.9-15.2L0,250.9V464c0,26.5,21.5,48,48,48l0,0h416c26.5,0,48-21.5,48-48l0,0V250.9L302.9,401.9
	C289.2,411.8,272.8,417.1,256,417.1z M493.6,163c-8.9-6.9-17.2-13.5-29.6-22.8V96c0-26.5-21.5-48-48-48h-77.5l-9-6.6
	C312.6,29.2,279.2-0.3,256,0c-23.2-0.3-56.6,29.2-73.4,41.4l-9,6.6H96c-26.5,0-48,21.5-48,48v44.1C35.6,149.5,27.2,156,18.4,163
	C6.8,172.1,0,186,0,200.7v10.6l96,69.4V96h320v184.7l96-69.4v-10.6C512,186,505.2,172.1,493.6,163z"/>
</svg>
