<svg id="Layer_2" data-name="Layer 2" xmlns="http://www.w3.org/2000/svg" viewBox="0 0 384 511"><defs><style>.cls-1{fill:#fff;}</style></defs><title>experince</title><path class="cls-1" d="M153.12,361.92c-8.69-8.67-4.16-6.22-25.12-11.82-9.51-2.55-17.87-7.44-25.43-13.3l-45.37,111a16,16,0,0,0,15.43,22l52.69-2L161.56,506A16,16,0,0,0,188,501.06l52-127.37a71.87,71.87,0,0,1-86.92-11.77Zm285.68,85.9-45.37-111c-7.56,5.87-15.92,10.75-25.43,13.3-21.07,5.63-16.45,3.17-25.12,11.82A71.89,71.89,0,0,1,256,373.69L308,501.06A16,16,0,0,0,334.43,506l36.25-38.2,52.69,2A16,16,0,0,0,438.8,447.82ZM319,339.34c15.28-15.52,17-14.18,38.79-20.1a40.59,40.59,0,0,0,28.47-28.92c7.48-28.35,5.54-24.93,25.95-45.66a41.36,41.36,0,0,0,10.42-39.51c-7.47-28.32-7.48-24.37,0-52.72a41.34,41.34,0,0,0-10.42-39.5C391.8,92.19,393.74,95.6,386.26,67.27a40.59,40.59,0,0,0-28.47-28.93c-27.88-7.59-24.52-5.61-45-26.36A39.82,39.82,0,0,0,274,1.4C246.08,9,250,9,222.05,1.4A39.8,39.8,0,0,0,183.16,12c-20.41,20.74-17,18.77-44.94,26.36a40.59,40.59,0,0,0-28.47,28.93c-7.47,28.33-5.54,24.92-25.95,45.66a41.31,41.31,0,0,0-10.42,39.5c7.47,28.3,7.48,24.35,0,52.71A41.38,41.38,0,0,0,83.8,244.66c20.41,20.73,18.47,17.31,26,45.66a40.59,40.59,0,0,0,28.47,28.92c22.38,6.09,24.05,5.13,38.78,20.1a39.81,39.81,0,0,0,49.74,5.81,39.72,39.72,0,0,1,42.53,0A39.79,39.79,0,0,0,319,339.34ZM153.66,175.62c0-52.92,42.24-95.83,94.34-95.83s94.34,42.91,94.34,95.83S300.1,271.45,248,271.45s-94.34-42.9-94.34-95.83Z" transform="translate(-56 0)"/></svg>