<svg id="Layer_1" data-name="Layer 1" xmlns="http://www.w3.org/2000/svg" viewBox="0 0 495.9 512"><defs><style>.cls-1{fill:#fff;}</style></defs><title>globe</title><path class="cls-1" d="M336.5,156.9C322,64.72,287.8,0,248,0s-74,64.72-88.5,156.9ZM152,256c0,22.92,1.2,44.9,3.3,66.06H340.6c2.1-21.16,3.3-43.14,3.3-66.06s-1.2-44.9-3.3-66.06H155.3C153.2,211.1,152,233.08,152,256Zm324.7-99.1c-28.6-70.09-86.5-124.28-158-146.16,24.4,34.89,41.2,87.43,50,146.16ZM177.2,10.74C105.8,32.62,47.8,86.81,19.3,156.9h108C136,98.17,152.8,45.63,177.2,10.74Zm310.2,179.2H372.7c2.1,21.67,3.3,43.87,3.3,66.06s-1.2,44.39-3.3,66.06H487.3A261.42,261.42,0,0,0,495.9,256a266,266,0,0,0-8.5-66.06ZM120,256c0-22.19,1.2-44.39,3.3-66.06H8.6a258,258,0,0,0,0,132.12H123.2C121.2,300.39,120,278.19,120,256Zm39.5,99.1C174,447.28,208.2,512,248,512s74-64.72,88.5-156.9ZM318.8,501.26c71.4-21.88,129.4-76.07,158-146.16h-108C360,413.83,343.2,466.37,318.8,501.26ZM19.3,355.1c28.6,70.09,86.5,124.28,158,146.16-24.4-34.89-41.2-87.43-50-146.16Z"/></svg>