<svg xmlns="http://www.w3.org/2000/svg" viewBox="0 0 779.09 406.01"><defs><style>.cls-1{fill:#ccc;}.cls-2,.cls-3,.cls-5,.cls-7{fill:none;}.cls-2,.cls-3,.cls-7{stroke:#000;}.cls-2,.cls-7{stroke-linecap:round;stroke-linejoin:round;}.cls-2{stroke-width:20px;}.cls-3{stroke-miterlimit:10;stroke-width:14px;}.cls-4{fill:#fff;}.cls-6{fill:red;}.cls-7{stroke-width:3px;}.cls-8{fill:#cccbcb;}.cls-9{fill:#d0d2d3;}</style></defs><title>logo</title><g id="WetWipes"><path d="M534,484s0,3,3,8c3,2-19,1-19,1v-5Z" transform="translate(-18.73 -198.44)"/><path class="cls-1" d="M458.66,443.87q21.75-6.11,24.93-21c.36-1.7-6.84.62-8.87-4.46a10.5,10.5,0,0,1,2.44-10.43s-8.55,3.32-12.53,10S458.66,433.21,458.66,443.87Zm168.18,0q21.75-6.11,24.93-21c.36-1.7-6.83.62-8.87-4.46a10.49,10.49,0,0,1,2.45-10.43s-8.56,3.32-12.54,10S626.84,433.21,626.84,443.87Z" transform="translate(-18.73 -198.44)"/><g id="Kleenex"><path class="cls-1" d="M56,431.16s-5.66,55.31,25.46,61.63c0,0,32.54,3.16,36.78-44.24,2.21-24.67,5.57-49.77,8.28-68.17,6-40.62,22.08-78.69,47.12-108.9.85-1,1.72-2.05,2.6-3.08,0,0-15.56,12.64-29.7,9.48-15.57-3.16-22.64-15.8-41-15.8,0,0-15.56,4.74-19.8,12.64S80,263.66,92.73,249.44s48.1-23.71,65.07-12.64,45.27-9.49,45.27-9.49,12.73-7.9,8.49,4.75-29.71,55.3-29.71,80.59c0,20.6-10.33,102.09-28.71,146.93A82.65,82.65,0,0,1,129,492.31C104,512.77,76.36,525.09,46.93,505.75c-13.68-9-20.57-26.7-16.78-43.92a103.06,103.06,0,0,1,7.41-21.19C57.37,410.62,56,431.16,56,431.16Z" transform="translate(-18.73 -198.44)"/><path class="cls-2" d="M56,431.16s-5.66,55.31,25.46,61.63c0,0,32.54,3.16,36.78-44.24,2.21-24.67,5.57-49.77,8.28-68.17,6-40.62,22.08-78.69,47.12-108.9.85-1,1.72-2.05,2.6-3.08,0,0-15.56,12.64-29.7,9.48-15.57-3.16-22.64-15.8-41-15.8,0,0-15.56,4.74-19.8,12.64S80,263.66,92.73,249.44s48.1-23.71,65.07-12.64,45.27-9.49,45.27-9.49,12.73-7.9,8.49,4.75-29.71,55.3-29.71,80.59c0,20.6-10.33,102.09-28.71,146.93A82.65,82.65,0,0,1,129,492.31C104,512.77,76.36,525.09,46.93,505.75c-13.68-9-20.57-26.7-16.78-43.92a103.06,103.06,0,0,1,7.41-21.19C57.37,410.62,56,431.16,56,431.16Z" transform="translate(-18.73 -198.44)"/><path class="cls-1" d="M302.45,436.48c-57.94,71.2-54.11-21.12-54.11-21.12-1.42-49-35.37-45.83-35.37-45.83,21.22-6.32,35.37-72.69,35.37-72.69,5.66-36.34,31.78-36.34,31.78-11.06-7.08,25.29-14,23.71-14,23.71,60.83,19,66.49-99.56,25.46-96.4S237,252.6,228.53,309.49s-41,49-41,49c-5.66,6.32,0,11.06,0,11.06,24.05,7.91,15.56,52.15,15.56,52.15s-9.9,58.47,24.05,74.27,74.32-45.48,74.32-45.48l1-14" transform="translate(-18.73 -198.44)"/><path class="cls-2" d="M302.45,436.48c-57.94,71.2-54.11-21.12-54.11-21.12-1.42-49-35.37-45.83-35.37-45.83,21.22-6.32,35.37-72.69,35.37-72.69,5.66-36.34,31.78-36.34,31.78-11.06-7.08,25.29-14,23.71-14,23.71,60.83,19,66.49-99.56,25.46-96.4S237,252.6,228.53,309.49s-41,49-41,49c-5.66,6.32,0,11.06,0,11.06,24.05,7.91,15.56,52.15,15.56,52.15s-9.9,58.47,24.05,74.27,74.32-45.48,74.32-45.48l1-14" transform="translate(-18.73 -198.44)"/><path class="cls-1" d="M368,462.23q-13.54,12.4-23.73,18.31t-19.45,5.91a20.84,20.84,0,0,1-17.17-8.24q-6.51-8.23-6.51-22.14c0-2.48.09-3,.28-5.68l1-13.91c1.48-9.31,4.29-19.3,7.74-30.43,8-25.74,15.22-40.41,20.13-48.39,5.26-8.43,14.92-12,20.28-13.73a12.77,12.77,0,0,1,9.09.36,9.06,9.06,0,0,1,5.55,6.81,38.6,38.6,0,0,1,.57,7,87.57,87.57,0,0,1-9.36,39.21q-9.34,19-29.25,40.49-.79,10.32-.79,14.2,0,8.63,3.18,13.69t8.46,5.06q5.37,0,11.44-3.87c4.05-2.58,9.82-7.94,18.12-16.08m-37.72-27.39A121,121,0,0,0,350.39,392q7.85-17.38,7.86-29.91a13.53,13.53,0,0,0-1.1-5.92c-.73-1.49-1.66-2.23-2.78-2.23q-3.69,0-10.7,18.28T329.89,423.42Z" transform="translate(-18.73 -198.44)"/><path class="cls-3" d="M368,462.23q-13.54,12.4-23.73,18.31t-19.45,5.91a20.84,20.84,0,0,1-17.17-8.24q-6.51-8.23-6.51-22.14c0-2.48.09-3,.28-5.68l1-13.91c1.48-9.31,4.29-19.3,7.74-30.43,8-25.74,15.22-40.41,20.13-48.39,5.26-8.43,14.92-12,20.28-13.73a12.77,12.77,0,0,1,9.09.36,9.06,9.06,0,0,1,5.55,6.81,38.6,38.6,0,0,1,.57,7,87.57,87.57,0,0,1-9.36,39.21q-9.34,19-29.25,40.49-.79,10.32-.79,14.2,0,8.63,3.18,13.69t8.46,5.06q5.37,0,11.44-3.87c4.05-2.58,9.82-7.94,18.12-16.08m-37.72-27.39A121,121,0,0,0,350.39,392q7.85-17.38,7.86-29.91a13.53,13.53,0,0,0-1.1-5.92c-.73-1.49-1.66-2.23-2.78-2.23q-3.69,0-10.7,18.28T329.89,423.42Z" transform="translate(-18.73 -198.44)"/><path class="cls-1" d="M436.58,462.23c-8.43,8.27-14.15,14.37-20.85,18.31a42.94,42.94,0,0,1-22.18,5.91q-13.55,0-21.84-8.64c-4.06-4.22-2.63-9.41-3.72-15.58l-.45-11.3c.88-12.39,1.71-23.69,10.48-33.91q14.64-17,32.44-17,9.26,0,14.83,4.76a15.68,15.68,0,0,1,5.57,12.51q0,20.53-43.78,33.35,4,19.35,20.79,19.35a24.29,24.29,0,0,0,12.54-3.52c4-2.35,7.54-7.56,15.57-15.64m-49.7-6.94q21.75-6.11,24.93-21c.36-1.7-6.83.62-8.87-4.46a10.49,10.49,0,0,1,2.45-10.43s-8.56,3.32-12.54,10S386.28,433.21,386.28,443.87Zm72.38,0q21.75-6.11,24.93-21c.36-1.7-6.84.62-8.87-4.46a10.5,10.5,0,0,1,2.44-10.43s-8.55,3.32-12.53,10S458.66,433.21,458.66,443.87Zm168.18,0q21.75-6.11,24.93-21c.36-1.7-6.83.62-8.87-4.46a10.49,10.49,0,0,1,2.45-10.43s-8.56,3.32-12.54,10S626.84,433.21,626.84,443.87Z" transform="translate(-18.73 -198.44)"/><path class="cls-3" d="M436.58,462.23c-8.43,8.27-14.15,14.37-20.85,18.31a42.94,42.94,0,0,1-22.18,5.91q-13.55,0-21.84-8.64c-4.06-4.22-2.63-9.41-3.72-15.58l-.45-11.3c.88-12.39,1.71-23.69,10.48-33.91q14.64-17,32.44-17,9.26,0,14.83,4.76a15.68,15.68,0,0,1,5.57,12.51q0,20.53-43.78,33.35,4,19.35,20.79,19.35a24.29,24.29,0,0,0,12.54-3.52c4-2.35,7.54-7.56,15.57-15.64m-49.7-6.94q21.75-6.11,24.93-21c.36-1.7-6.83.62-8.87-4.46a10.49,10.49,0,0,1,2.45-10.43s-8.56,3.32-12.54,10S386.28,433.21,386.28,443.87Zm72.38,0q21.75-6.11,24.93-21c.36-1.7-6.84.62-8.87-4.46a10.5,10.5,0,0,1,2.44-10.43s-8.55,3.32-12.53,10S458.66,433.21,458.66,443.87Zm168.18,0q21.75-6.11,24.93-21c.36-1.7-6.83.62-8.87-4.46a10.49,10.49,0,0,1,2.45-10.43s-8.56,3.32-12.54,10S626.84,433.21,626.84,443.87Z" transform="translate(-18.73 -198.44)"/><path class="cls-1" d="M508.92,462.23c-8.42,8.27-14.07,14.37-20.76,18.31A43,43,0,0,1,466,486.45q-13.53,0-21.84-8.64a29,29,0,0,1-7.66-15.3L436,451q1.29-18.63,14.49-34,14.63-17,32.43-17,9.25,0,14.83,4.76a15.68,15.68,0,0,1,5.57,12.51q0,20.53-43.78,33.35,4,19.35,20.8,19.35a24.28,24.28,0,0,0,12.53-3.52c4-2.35,9-7.56,17-15.64" transform="translate(-18.73 -198.44)"/><path class="cls-3" d="M508.92,462.23c-8.42,8.27-14.07,14.37-20.76,18.31A43,43,0,0,1,466,486.45q-13.53,0-21.84-8.64a29,29,0,0,1-7.66-15.3L436,451q1.29-18.63,14.49-34,14.63-17,32.43-17,9.25,0,14.83,4.76a15.68,15.68,0,0,1,5.57,12.51q0,20.53-43.78,33.35,4,19.35,20.8,19.35a24.28,24.28,0,0,0,12.53-3.52c4-2.35,9-7.56,17-15.64" transform="translate(-18.73 -198.44)"/><path class="cls-1" d="M604.55,462.23c-15.33,16.14-25.46,24.22-36.4,24.22a13.59,13.59,0,0,1-10.75-4.67q-4.08-4.66-4.08-12.5,0-10.62,8.76-32.46,4.67-11.71,4.67-14.89c0-2.11-.83-3.17-2.49-3.17a7.78,7.78,0,0,0-3.68,1.39,43.62,43.62,0,0,0-4.87,3.87q-2.49,2.28-5.57,5.55c-1.79,1.86-3.72,4-5.77,6.36l-5.58,6.45c-2.45,3-11.31,14.61-12.68,24.91-.67,8,.35,11,.72,14.19l-22,5.16c-.73-8.93,4-23,4-24.18l.93-11.65a111.91,111.91,0,0,1,2.76-14.39,194.88,194.88,0,0,1,12-32.15l24.27-4.67q-7.65,20.55-10.05,32.36,16.31-18.16,25.89-25.16t17-7a10.78,10.78,0,0,1,8.44,3.82,13.9,13.9,0,0,1,3.38,9.56q0,9.51-8.56,31.35-5.87,15-5.86,19.47,0,6,4.88,6c4.86,0,9.24-5.72,20.08-18.49" transform="translate(-18.73 -198.44)"/><path class="cls-3" d="M604.55,462.23c-15.33,16.14-25.46,24.22-36.4,24.22a13.59,13.59,0,0,1-10.75-4.67q-4.08-4.66-4.08-12.5,0-10.62,8.76-32.46,4.67-11.71,4.67-14.89c0-2.11-.83-3.17-2.49-3.17a7.78,7.78,0,0,0-3.68,1.39,43.62,43.62,0,0,0-4.87,3.87q-2.49,2.28-5.57,5.55c-1.79,1.86-3.72,4-5.77,6.36l-5.58,6.45c-2.45,3-11.31,14.61-12.68,24.91-.67,8,.35,11,.72,14.19l-22,5.16c-.73-8.93,4-23,4-24.18l.93-11.65a111.91,111.91,0,0,1,2.76-14.39,194.88,194.88,0,0,1,12-32.15l24.27-4.67q-7.65,20.55-10.05,32.36,16.31-18.16,25.89-25.16t17-7a10.78,10.78,0,0,1,8.44,3.82,13.9,13.9,0,0,1,3.38,9.56q0,9.51-8.56,31.35-5.87,15-5.86,19.47,0,6,4.88,6c4.86,0,9.24-5.72,20.08-18.49" transform="translate(-18.73 -198.44)"/><path class="cls-1" d="M679.07,462.17c-8.43,8.27-16.19,14.43-22.89,18.37A42.94,42.94,0,0,1,634,486.45q-13.54,0-21.84-8.64a29.08,29.08,0,0,1-7.62-15l-.64-11.29c.52-13.08,5.38-23.76,14.57-34.46q14.64-17,32.44-17,9.26,0,14.82,4.76a15.66,15.66,0,0,1,5.58,12.51q0,20.53-43.78,33.35,4,19.35,20.79,19.35a24.29,24.29,0,0,0,12.54-3.52c3.63-2.15,8.95-7.07,15.95-14" transform="translate(-18.73 -198.44)"/><path class="cls-3" d="M679.07,462.17c-8.43,8.27-16.19,14.43-22.89,18.37A42.94,42.94,0,0,1,634,486.45q-13.54,0-21.84-8.64a29.08,29.08,0,0,1-7.62-15l-.64-11.29c.52-13.08,5.38-23.76,14.57-34.46q14.64-17,32.44-17,9.26,0,14.82,4.76a15.66,15.66,0,0,1,5.58,12.51q0,20.53-43.78,33.35,4,19.35,20.79,19.35a24.29,24.29,0,0,0,12.54-3.52c3.63-2.15,8.95-7.07,15.95-14" transform="translate(-18.73 -198.44)"/><path class="cls-1" d="M676.68,452.58A77,77,0,0,0,688.32,438q12.33-19.85,22.34-28.93T730.71,400q16.6,0,19.89,19.35,5-10,10.4-14.69A19.4,19.4,0,0,1,774.09,400q7.56,0,11.44,4.61t3.88,8.79c-1,14.12-13.33,12-13.33,12a5.1,5.1,0,0,1-1.5-3.63,14.63,14.63,0,0,0-2-7q-1.95-3.37-5-3.38-7.74,0-13.51,20.5T748.27,463a13.85,13.85,0,0,0,2.88,9.13,9.24,9.24,0,0,0,7.45,3.47c12.16.16,20.37-15,29.6-28.18a1.43,1.43,0,0,1,2.49.94h0c.07.76.13,1.71.13,2.81a29.9,29.9,0,0,1-3.71,14.16c-2.09,3.85-4,7.56-7.53,10.38-11.74,9.41-19.58,10.9-29.17,10.9q-17.52,0-23-20.14-9.95,20.14-26.86,20.14A22.12,22.12,0,0,1,688,482.87c-3.78-2.51-7.66-9.62-.52-15.72,3.84-3.27,6.76-4.13,7.49-4.13,1.06,0,2.09,1.43,3.08,4.27q3.28,8.94,9.35,8.93,6.57,0,11.69-10t8-24.76q2.83-14.79,2.84-18.27,0-10.62-7.76-10.62-9.75,0-25.87,27.3-8.56,14.49-17.31,22.33" transform="translate(-18.73 -198.44)"/><path class="cls-3" d="M676.68,452.58A77,77,0,0,0,688.32,438q12.33-19.85,22.34-28.93T730.71,400q16.6,0,19.89,19.35,5-10,10.4-14.69A19.4,19.4,0,0,1,774.09,400q7.56,0,11.44,4.61t3.88,8.79c-1,14.12-13.33,12-13.33,12a5.1,5.1,0,0,1-1.5-3.63,14.63,14.63,0,0,0-2-7q-1.95-3.37-5-3.38-7.74,0-13.51,20.5T748.27,463a13.85,13.85,0,0,0,2.88,9.13,9.24,9.24,0,0,0,7.45,3.47c12.16.16,20.37-15,29.6-28.18a1.43,1.43,0,0,1,2.49.94h0c.07.76.13,1.71.13,2.81a29.9,29.9,0,0,1-3.71,14.16c-2.09,3.85-4,7.56-7.53,10.38-11.74,9.41-19.58,10.9-29.17,10.9q-17.52,0-23-20.14-9.95,20.14-26.86,20.14A22.12,22.12,0,0,1,688,482.87c-3.78-2.51-7.66-9.62-.52-15.72,3.84-3.27,6.76-4.13,7.49-4.13,1.06,0,2.09,1.43,3.08,4.27q3.28,8.94,9.35,8.93,6.57,0,11.69-10t8-24.76q2.83-14.79,2.84-18.27,0-10.62-7.76-10.62-9.75,0-25.87,27.3-8.56,14.49-17.31,22.33" transform="translate(-18.73 -198.44)"/></g><path class="cls-4" d="M37.5,411.5s-23,34-14,60c.23.65.46,1.29.7,1.93,10.79,28,41.23,42.76,70.36,35.67a87.56,87.56,0,0,0,47.94-30.6s29-38,37-112c0,0,16,5,12,30-3.87,24.22-5.87,73.78,22.19,90.49a30.09,30.09,0,0,0,6.45,2.81c7.82,2.43,27.09,6.49,46.36-4.3,0,0,18-12,28-28,0,0,8,27,31,24s38-19,38-19,7,25,39,18c20-5,33-21,33-21s6,18,25,20,34-8,41-15c0,0-1,14,0,19l30-7a38.26,38.26,0,0,1,8-38c16-18,20-22,20-22s-19,36-8,55c6,10,19,10,28,7s24-19,24-19,8.1,30,43.25,19.2a64,64,0,0,0,20.84-11.09c7.6-6,18.94-16.24,26.91-29.11,0,0,14.55-26.8,25.55-30.82a4,4,0,0,1,5.26,4c-.69,12.64-14.81,46.82-14.81,46.82s-6,9-15-7c0,0-2.64-8.81-13.71,5.81a11.09,11.09,0,0,0-2.15,8.41c2.69,16.45,26.86,14.78,26.86,14.78s14-1,20-16c0,0,6,20,32,16,0,0,34-6,34-40,0,0-.69-6.25-5-6a4.57,4.57,0,0,0-3.76,2.63c-2.38,4.83-10.72,19.08-27.26,22.39-10-2,0-33,0-33s3-13,10-20c0,0,3,0,1,7s12,7,12,7,20-3,10-24c-18-25-40,1-40,1s-7-12-16-13-24,2-40,24c0,0-21,38-43,46,0,0-13,5-21-11,0,0,18-3,33-14s11-23,11-23-3-29-36-18-37,47-37,47-1,8-15,18c0,0-9,7,1-13,0,0,15-32,9-44s-15-13-27-8-24,20-24,20l10-25-35,5s-13,33-15,47c0,0-6,11-21,17s-20-8-20-8,22-5,34-17,8-24,8-24-5-24-33-18c0,0-37,9-41,50,0,0-12,16-23,18s-18-9-18-9,21-7,31-15c0,0,20-17,8-33s-37-8-37-8-32,12-34,47c0,0-13,17-24,19,0,0-5-1-3-22,0,0,45-38,38-89,0,0-4.23-17.61-23.91-15.58a32.69,32.69,0,0,0-21.11,11.19c-9.68,11-25.27,35.29-30,80.39,0,0-15,26-31,28,0,0-8,6-12-31-3-41-6-49-28-57,0,0,24-31,28-73,0,0,3-18,12-23s18,19-3,33c0,0-7,4-2,6,3.48,1.39,10.35,3.27,20.28,3.27A36.16,36.16,0,0,0,308,291.11c10.9-15,13.5-34.28,12.48-51.61,0,0-3-42-33-38-24,1-49,16-58,51,0,0-8,28-10,47-3,22-14,47-35,45,0,0-5,5-1-23A136.06,136.06,0,0,0,186,304.63a103.19,103.19,0,0,1,6.15-27.44c7.74-20.53,20.64-49.54,24.32-54.69,0,0,8.51-10.06-9.17-9.08a30.74,30.74,0,0,0-14,4.3c-4.92,2.92-12.12,6.78-15.85,6.78a95.38,95.38,0,0,1-18.63-.13,71.31,71.31,0,0,1-14.46-3.31c-14.92-4.86-60.53.64-67.91,38.44,0,0-1,12,7,12s0-10,24-14c0,0,7-2,25,11,0,0,9,7,24,4,0,0-44,45-45,159,0,0-2,46-33,45-24-3-19-65-19-65S53.5,395.5,37.5,411.5Z" transform="translate(-18.73 -198.44)"/><path class="cls-4" d="M429,396s-2-2-3.95-4C422,390,436,386,436,386s2,1,2,2S429,396,429,396Z" transform="translate(-18.73 -198.44)"/><path class="cls-4" d="M502,396s-2-2-3.95-4C495,390,509,386,509,386s2,1,2,2S502,396,502,396Z" transform="translate(-18.73 -198.44)"/><path class="cls-4" d="M670,396s-2-2-4-4c-3-2,11-6,11-6s2,1,2,2S670,396,670,396Z" transform="translate(-18.73 -198.44)"/><path class="cls-4" d="M600.06,441.46a9.84,9.84,0,0,0-3.48-1.24c-3.65,0,4-11,4-11s2.23-.24,2.76.6S600.06,441.46,600.06,441.46Z" transform="translate(-18.73 -198.44)"/><path class="cls-1" d="M458.66,435.87q21.75-6.11,24.93-21c.36-1.7-6.84.62-8.87-4.46a10.5,10.5,0,0,1,2.44-10.43s-8.55,3.32-12.53,10S458.66,425.21,458.66,435.87Zm168.18,0q21.75-6.11,24.93-21c.36-1.7-6.83.62-8.87-4.46a10.49,10.49,0,0,1,2.45-10.43s-8.56,3.32-12.54,10S626.84,425.21,626.84,435.87Z" transform="translate(-18.73 -198.44)"/><g id="Kleenex-2" data-name="Kleenex"><path class="cls-1" d="M56,423.16s-5.66,55.31,25.46,61.63c0,0,32.54,3.16,36.78-44.24,2.21-24.67,5.57-49.77,8.28-68.17,6-40.62,22.08-78.69,47.12-108.9.85-1,1.72-2.05,2.6-3.08,0,0-15.56,12.64-29.7,9.48-15.57-3.16-22.64-15.8-41-15.8,0,0-15.56,4.74-19.8,12.64S80,255.66,92.73,241.44s48.1-23.71,65.07-12.64,45.27-9.49,45.27-9.49,12.73-7.9,8.49,4.75-29.71,55.3-29.71,80.59c0,20.6-10.33,102.09-28.71,146.93A82.65,82.65,0,0,1,129,484.31C104,504.77,76.36,517.09,46.93,497.75c-13.68-9-20.57-26.7-16.78-43.92a103.06,103.06,0,0,1,7.41-21.19C57.37,402.62,56,423.16,56,423.16Z" transform="translate(-18.73 -198.44)"/><path class="cls-1" d="M302.45,428.48c-57.94,71.2-54.11-21.12-54.11-21.12-1.42-49-35.37-45.83-35.37-45.83,21.22-6.32,35.37-72.69,35.37-72.69,5.66-36.34,31.78-36.34,31.78-11.06-7.08,25.29-14,23.71-14,23.71,60.83,19,66.49-99.56,25.46-96.4S237,244.6,228.53,301.49s-41,49-41,49c-5.66,6.32,0,11.06,0,11.06,24.05,7.91,15.56,52.15,15.56,52.15s-9.9,58.47,24.05,74.27,74.32-45.48,74.32-45.48l1-14" transform="translate(-18.73 -198.44)"/><path class="cls-1" d="M368,454.23q-13.54,12.4-23.73,18.31t-19.45,5.91a20.84,20.84,0,0,1-17.17-8.24q-6.51-8.23-6.51-22.14c0-2.48.09-3,.28-5.68l1-13.91c1.48-9.31,4.29-19.3,7.74-30.43,8-25.74,15.22-40.41,20.13-48.39,5.26-8.43,14.92-12,20.28-13.73a12.77,12.77,0,0,1,9.09.36,9.06,9.06,0,0,1,5.55,6.81,38.6,38.6,0,0,1,.57,7,87.57,87.57,0,0,1-9.36,39.21q-9.34,19-29.25,40.49-.79,10.32-.79,14.2,0,8.63,3.18,13.69t8.46,5.06q5.37,0,11.44-3.87c4.05-2.58,9.82-7.94,18.12-16.08m-37.72-27.39A121,121,0,0,0,350.39,384q7.85-17.38,7.86-29.91a13.53,13.53,0,0,0-1.1-5.92c-.73-1.49-1.66-2.23-2.78-2.23q-3.69,0-10.7,18.28T329.89,415.42Z" transform="translate(-18.73 -198.44)"/><path class="cls-1" d="M436.58,454.23c-8.43,8.27-14.15,14.37-20.85,18.31a42.94,42.94,0,0,1-22.18,5.91q-13.55,0-21.84-8.64c-4.06-4.22-2.63-9.41-3.72-15.58l-.45-11.3c.88-12.39,1.71-23.69,10.48-33.91q14.64-17,32.44-17,9.26,0,14.83,4.76a15.68,15.68,0,0,1,5.57,12.51q0,20.53-43.78,33.35,4,19.35,20.79,19.35a24.29,24.29,0,0,0,12.54-3.52c4-2.35,7.54-7.56,15.57-15.64m-49.7-6.94q21.75-6.11,24.93-21c.36-1.7-6.83.62-8.87-4.46a10.49,10.49,0,0,1,2.45-10.43s-8.56,3.32-12.54,10S386.28,425.21,386.28,435.87Zm72.38,0q21.75-6.11,24.93-21c.36-1.7-6.84.62-8.87-4.46a10.5,10.5,0,0,1,2.44-10.43s-8.55,3.32-12.53,10S458.66,425.21,458.66,435.87Zm168.18,0q21.75-6.11,24.93-21c.36-1.7-6.83.62-8.87-4.46a10.49,10.49,0,0,1,2.45-10.43s-8.56,3.32-12.54,10S626.84,425.21,626.84,435.87Z" transform="translate(-18.73 -198.44)"/><path class="cls-1" d="M508.92,454.23c-8.42,8.27-14.07,14.37-20.76,18.31A43,43,0,0,1,466,478.45q-13.53,0-21.84-8.64a29,29,0,0,1-7.66-15.3L436,443q1.29-18.63,14.49-34,14.63-17,32.43-17,9.25,0,14.83,4.76a15.68,15.68,0,0,1,5.57,12.51q0,20.53-43.78,33.35,4,19.35,20.8,19.35a24.28,24.28,0,0,0,12.53-3.52c4-2.35,9-7.56,17-15.64" transform="translate(-18.73 -198.44)"/><path class="cls-1" d="M604.55,454.23c-15.33,16.14-25.46,24.22-36.4,24.22a13.59,13.59,0,0,1-10.75-4.67q-4.08-4.66-4.08-12.5,0-10.62,8.76-32.46,4.67-11.71,4.67-14.89c0-2.11-.83-3.17-2.49-3.17a7.78,7.78,0,0,0-3.68,1.39,43.62,43.62,0,0,0-4.87,3.87q-2.49,2.28-5.57,5.55c-1.79,1.86-3.72,4-5.77,6.36l-5.58,6.45c-2.45,3-11.31,14.61-12.68,24.91-.67,8,.35,11,.72,14.19l-22,5.16c-.73-8.93,4-23,4-24.18l.93-11.65a111.91,111.91,0,0,1,2.76-14.39,194.88,194.88,0,0,1,12-32.15l24.27-4.67q-7.65,20.55-10.05,32.36,16.31-18.16,25.89-25.16t17-7a10.78,10.78,0,0,1,8.44,3.82,13.9,13.9,0,0,1,3.38,9.56q0,9.51-8.56,31.35-5.87,15-5.86,19.47,0,6,4.88,6c4.86,0,9.24-5.72,20.08-18.49" transform="translate(-18.73 -198.44)"/><path class="cls-1" d="M679.07,454.17c-8.43,8.27-16.19,14.43-22.89,18.37A42.94,42.94,0,0,1,634,478.45q-13.54,0-21.84-8.64a29.08,29.08,0,0,1-7.62-15l-.64-11.29c.52-13.08,5.38-23.76,14.57-34.46q14.64-17,32.44-17,9.26,0,14.82,4.76a15.66,15.66,0,0,1,5.58,12.51q0,20.53-43.78,33.35,4,19.35,20.79,19.35a24.29,24.29,0,0,0,12.54-3.52c3.63-2.15,8.95-7.07,15.95-14" transform="translate(-18.73 -198.44)"/><path class="cls-1" d="M676.68,444.58A77,77,0,0,0,688.32,430q12.33-19.85,22.34-28.93T730.71,392q16.6,0,19.89,19.35,5-10,10.4-14.69A19.4,19.4,0,0,1,774.09,392q7.56,0,11.44,4.61t3.88,8.79c-1,14.12-13.33,12-13.33,12a5.1,5.1,0,0,1-1.5-3.63,14.63,14.63,0,0,0-2-7q-1.95-3.37-5-3.38-7.74,0-13.51,20.5T748.27,455a13.85,13.85,0,0,0,2.88,9.13,9.24,9.24,0,0,0,7.45,3.47c12.16.16,20.37-15,29.6-28.18a1.43,1.43,0,0,1,2.49.94h0c.07.76.13,1.71.13,2.81a29.9,29.9,0,0,1-3.71,14.16c-2.09,3.85-4,7.56-7.53,10.38-11.74,9.41-19.58,10.9-29.17,10.9q-17.52,0-23-20.14-9.95,20.14-26.86,20.14A22.12,22.12,0,0,1,688,474.87c-3.78-2.51-7.66-9.62-.52-15.72,3.84-3.27,6.76-4.13,7.49-4.13,1.06,0,2.09,1.43,3.08,4.27q3.28,8.94,9.35,8.93,6.57,0,11.69-10t8-24.76q2.83-14.79,2.84-18.27,0-10.62-7.76-10.62-9.75,0-25.87,27.3-8.56,14.49-17.31,22.33" transform="translate(-18.73 -198.44)"/></g><path class="cls-5" d="M456.74,431.59q21.35-6,24.47-20.7c.35-1.68-6.71.61-8.71-4.39a10.35,10.35,0,0,1,2.4-10.26s-8.4,3.27-12.3,9.81S456.74,421.11,456.74,431.59Zm169,0q21.35-6,24.47-20.7c.35-1.68-6.71.61-8.71-4.39a10.35,10.35,0,0,1,2.4-10.26s-8.4,3.27-12.3,9.81S625.74,421.11,625.74,431.59Z" transform="translate(-18.73 -198.44)"/><path id="e_gap" class="cls-4" d="M633.87,409.84c4.12-6.41,12.63-9.39,12.63-9.39a10.36,10.36,0,0,0-2.75,10.17c1.83,5.07,9,3,8.56,4.69q-3.63,14.56-25.16,19.85Q627.67,419.46,633.87,409.84Z" transform="translate(-18.73 -198.44)"/><path id="e_gap-2" data-name="e_gap" class="cls-4" d="M465.87,409.84c4.12-6.41,12.63-9.39,12.63-9.39a10.36,10.36,0,0,0-2.75,10.17c1.83,5.07,9,3,8.56,4.69q-3.63,14.56-25.16,19.85Q459.68,419.46,465.87,409.84Z" transform="translate(-18.73 -198.44)"/><g id="Kleenex-3" data-name="Kleenex"><path class="cls-6" d="M52.64,419.09s-5.55,54.42,25,60.64c0,0,31.94,3.1,36.1-43.54,2.17-24.27,5.47-49,8.13-67.07,5.88-40,21.67-77.43,46.24-107.15.84-1,1.69-2,2.56-3,0,0-15.27,12.44-29.16,9.33-15.27-3.11-22.21-15.55-40.26-15.55,0,0-15.28,4.67-19.44,12.44s-5.55-10.88,6.94-24.88S136,217,152.61,227.84,197,218.52,197,218.52s12.5-7.78,8.33,4.66-29.16,54.42-29.16,79.3c0,20.27-10.14,100.44-28.18,144.57a81.23,81.23,0,0,1-23.65,32.2c-24.63,20.13-51.71,32.26-80.59,13.23-13.43-8.85-20.2-26.28-16.48-43.22a101.75,101.75,0,0,1,7.28-20.84C54,398.87,52.64,419.09,52.64,419.09Z" transform="translate(-18.73 -198.44)"/><path class="cls-6" d="M297.53,424.32c-56.87,70.06-56.06-20.78-56.06-20.78-1.39-48.2-34.71-45.09-34.71-45.09,20.83-6.22,34.71-71.52,34.71-71.52,5.55-35.76,36.1-35.76,36.1-10.89-6.94,24.88-16.66,23.33-16.66,23.33,59.7,18.65,65.26-98,25-94.85S230.36,243.39,222,299.37s-40.26,48.2-40.26,48.2c-5.56,6.21,0,10.88,0,10.88,23.6,7.77,15.27,51.31,15.27,51.31s-9.72,57.53,23.6,73.07,75.9-44.75,75.9-44.75l1-13.76" transform="translate(-18.73 -198.44)"/><path class="cls-6" d="M361.86,449.65q-13.28,12.21-23.29,18t-19.09,5.81a20.43,20.43,0,0,1-16.85-8.1q-6.39-8.11-6.39-21.78c0-2.45.09-3,.28-5.6l1-13.68c1.45-9.16,4.2-19,7.6-29.94,7.81-25.33,14.94-39.76,19.76-47.61,5.11-8.77,14.63-13.85,19.9-15.52,2.93-.92,6.12,1.1,8.92,2.36a8.92,8.92,0,0,1,5.45,6.7,38.43,38.43,0,0,1,.55,6.9,86.53,86.53,0,0,1-9.17,38.58q-9.18,18.65-28.72,39.84-.78,10.15-.78,14,0,8.51,3.13,13.48t8.3,5q5.26,0,11.23-3.81c4-2.54,9.64-7.81,17.78-15.82m-37-26.95a119.17,119.17,0,0,0,20.12-30.9q7.71-17.11,7.71-29.44a13.47,13.47,0,0,0-1.07-5.82c-.72-1.47-1.63-2.2-2.74-2.2q-3.6,0-10.49,18T324.46,411.47Z" transform="translate(-18.73 -198.44)"/><path class="cls-6" d="M434.48,438.42c-7.88,7.95-13.34,13.07-17.25,15.38a23.69,23.69,0,0,1-12.3,3.47q-16.5,0-20.41-19,43-12.6,43-32.81A15.43,15.43,0,0,0,422,393.11q-5.47-4.68-14.55-4.69-17.49,0-31.84,16.75-12.92,15.07-14.21,33.36l.44,11.12A28.8,28.8,0,0,0,369.43,465q8.16,8.49,21.44,8.49a42.11,42.11,0,0,0,21.77-5.81c6.55-3.85,14.09-9.83,22.31-17.92l.11-.1ZM389.6,406.05c3.9-6.54,12.3-9.81,12.3-9.81a10.35,10.35,0,0,0-2.4,10.26c2,5,9.06,2.71,8.71,4.39q-3.12,14.69-24.47,20.7Q383.74,415.87,389.6,406.05Z" transform="translate(-18.73 -198.44)"/><path class="cls-6" d="M490.28,453.8a23.71,23.71,0,0,1-12.3,3.47q-16.51,0-20.41-19,43-12.6,43-32.81a15.46,15.46,0,0,0-5.47-12.31q-5.47-4.68-14.55-4.69-17.49,0-31.84,16.75-12.89,15-14.2,33.25a1.49,1.49,0,0,0,0,.21l.49,11.12v.18A28.71,28.71,0,0,0,442.48,465q8.14,8.49,21.43,8.49a42.12,42.12,0,0,0,21.78-5.81c6.58-3.87,13.09-9.88,21.36-18l.91-11.23Q496.14,450.35,490.28,453.8ZM462.6,406.05c3.9-6.54,12.3-9.81,12.3-9.81a10.35,10.35,0,0,0-2.4,10.26c2,5,9.06,2.71,8.71,4.39q-3.12,14.69-24.47,20.7Q456.74,415.87,462.6,406.05Z" transform="translate(-18.73 -198.44)"/><path class="cls-6" d="M603.86,449.65q-22.56,23.84-38.68,23.83a13.31,13.31,0,0,1-10.54-4.59q-4-4.59-4-12.3,0-10.45,8.6-31.94,4.59-11.52,4.59-14.65c0-2.08-.82-3.12-2.44-3.12a7.64,7.64,0,0,0-3.62,1.37,43.71,43.71,0,0,0-4.78,3.81c-1.63,1.49-3.45,3.32-5.47,5.46q-2.64,2.75-5.67,6.25l-5.46,6.35c-2.41,2.93-11.11,14.38-12.45,24.51-.66,7.87.34,10.87.71,14l-21.59,5.08c-.71-8.79,3.95-22.63,4-23.8l.91-11.46a112.11,112.11,0,0,1,2.7-14.16,193.68,193.68,0,0,1,11.77-31.64L546.24,388q-7.53,20.22-9.86,31.84,16-17.88,25.41-24.76t16.72-6.88a10.6,10.6,0,0,1,8.28,3.75,13.71,13.71,0,0,1,3.32,9.41q0,9.36-8.4,30.85Q576,447,576,451.39q0,5.88,4.8,5.88c4.76,0,12-5.62,22.65-18.19" transform="translate(-18.73 -198.44)"/><path class="cls-6" d="M674.78,440.05c-6.87,6.8-12.09,11.65-15.65,13.75a23.75,23.75,0,0,1-12.31,3.47q-16.5,0-20.41-19,43-12.6,43-32.81a15.43,15.43,0,0,0-5.47-12.31q-5.46-4.68-14.55-4.69-17.48,0-31.83,16.75c-9,10.53-13.8,21-14.31,33.91l.63,11.11a28.67,28.67,0,0,0,7.48,14.8q8.14,8.49,21.43,8.49a42.18,42.18,0,0,0,21.78-5.81c6.57-3.87,14.19-9.94,22.46-18.08Zm-43.18-34c3.9-6.54,12.3-9.81,12.3-9.81a10.35,10.35,0,0,0-2.4,10.26c2,5,9.06,2.71,8.71,4.39q-3.12,14.69-24.47,20.7Q625.74,415.87,631.6,406.05Z" transform="translate(-18.73 -198.44)"/><path class="cls-6" d="M674.66,440.16a75,75,0,0,0,11.42-14.33q12.1-19.54,21.93-28.47t19.67-8.94q16.32,0,19.53,19.05,4.89-9.87,10.21-14.46a19,19,0,0,1,12.84-4.59q7.43,0,11.23,4.54t3.81,8.65c-1,13.89-13.09,11.81-13.09,11.81a5,5,0,0,1-1.46-3.56,14.55,14.55,0,0,0-2-6.89q-1.9-3.32-4.92-3.32-7.61,0-13.26,20.18t-5.65,30.61a13.59,13.59,0,0,0,2.83,9,9,9,0,0,0,7.32,3.42C767,463,778,451,787.06,438.07a1.39,1.39,0,0,1,2.44.92h0c.26,2.62-1.26,6.88-3.22,10.85a38.88,38.88,0,0,1-10.62,13.1c-11.52,9.26-19.23,10.74-28.64,10.74q-17.19,0-22.56-19.83-9.76,19.83-26.37,19.83a21.73,21.73,0,0,1-12.3-3.71c-3.71-2.48-7.52-9.47-.52-15.47,3.78-3.22,6.64-4.07,7.36-4.07q1.56,0,3,4.2,3.23,8.79,9.18,8.79,6.45,0,11.48-9.81t7.81-24.37q2.77-14.55,2.78-18,0-10.44-7.61-10.44-9.59,0-25.4,26.85-8.4,14.26-17,22" transform="translate(-18.73 -198.44)"/></g><path class="cls-7" d="M219.5,222.5s-7-13-15-13c-1.31-.05-5.17.09-6.38.59-5,2.11-22.86,9-35.62,6.41-15-3-46-7-72,8-19,11-16,48-16,48" transform="translate(-18.73 -198.44)"/><path class="cls-7" d="M184.5,342.5s15,3,23-14c6.25-13.29,10.67-67.51,30-100.11a58.34,58.34,0,0,1,36-26.65c23.41-6,38,3.1,47.06,23.76" transform="translate(-18.73 -198.44)"/><path class="cls-7" d="M255.5,428.5s1,42.74,32.59-2.94a10.79,10.79,0,0,0,1.78-4.35c2.26-13.17,15-79.22,44.63-92.71,33-15,40,23,36,41" transform="translate(-18.73 -198.44)"/><path class="cls-7" d="M334.5,435.5s-10,39,20,0c0,0,13-51,52-50,30,1,29,28,29,28s16-29.9,43-29c30,1,29,28,29,28s8-20,12-25l38-7-7,17s25-25,42-5c0,0,6,6,6,22" transform="translate(-18.73 -198.44)"/><path d="M558,395s12-10,24-8v-2l-17,2-11.15,8Z" transform="translate(-18.73 -198.44)"/><path class="cls-7" d="M584.5,451.5s7-2,14-14c0,0,6-47,43-53,0,0,34-6,35,35" transform="translate(-18.73 -198.44)"/><path class="cls-7" d="M794.5,412.5s2.76-20.27-20.9-29a16.72,16.72,0,0,0-9.25-.83c-10.52,2.24-14.85,11.8-14.85,11.8s-11-19-34-8-39,47-51,52" transform="translate(-18.73 -198.44)"/><path class="cls-7" d="M143.5,282.5" transform="translate(-18.73 -198.44)"/><path class="cls-7" d="M144.5,286.5s-35,47-33,135c0,0,1,56-31,54,0,0-14,0-16-21" transform="translate(-18.73 -198.44)"/><path class="cls-7" d="M63.5,425.5s-8-27-23-13-27,36-16,69" transform="translate(-18.73 -198.44)"/><path class="cls-7" d="M184.5,374.5s12,7,7,37,1,63,17,75" transform="translate(-18.73 -198.44)"/><path d="M262,316.22a1.36,1.36,0,0,1-2.26.75c-2.42-2.22-6.5-6.6-7.2-11.47-.9-6.3,5.49-23.14,6.78-26.44a1.33,1.33,0,0,1,.79-.77l6.16-2.31c.71-.27,3.52.3,3.77,1,.93,2.64.71,8.44-1.11,11.5-2.39,4-9.39,9-12.39,11s4.83,3.84,6.42,4.42C264.1,304.35,262.73,312.23,262,316.22Z" transform="translate(-18.73 -198.44)"/><path d="M567.9,604.45h27.18l13.59-37.75s12.08-3,15.1-12.08l-9.06,28.69,10.57,21.14h42.28l31.33-.73c18.66-2.26,34.1-16.21,37-34.77a38.94,38.94,0,0,0-14-37h19.63s14.37-32.33-15.55-39.41a43.91,43.91,0,0,0-22.63,1c-5,1.51-11,3.75-14.67,6.72l3-9.06H640.38l-3,9.06s1.51-13.59-46.81-10.57H465.22l-21.14,96.64,13.59,18.12H522.6l-3-15.1,13.59,15.1H567.9Z" transform="translate(-18.73 -198.44)"/><polygon points="396.67 406.01 419.32 335.04 438.29 335.04 448.01 291.25 244.16 291.25 224.53 384.87 238.12 406.01 396.67 406.01"/><path class="cls-4" d="M354.08,498.09c-12.77,28.5-25.41,57.05-37.47,85.86H288.7c1.59-15,4.21-29.82,7.08-44.62C289.07,554.2,282.3,569,275.7,584H248q7.8-43.14,17.51-85.84h21.71q-4,15.23-7.83,30.5-3.57,14.26-6.9,28.6c7.4-20.15,16.53-39.65,25.56-59.1h23.21c-2.31,9.61-4.76,19.18-7.15,28.77q-4,16.14-7.89,32.31c8-20.72,16.77-41,26.19-61.08Z" transform="translate(-18.73 -198.44)"/><path class="cls-4" d="M358.48,498.09l37.28,0c-2.36,7.05-3.51,10.53-5.79,17.43l-14.94,0c-2.16,6.55-3.22,9.79-5.32,16.26l14,0c-2.1,6.49-3.14,9.72-5.2,16.19l-14,0c-2.38,7.47-3.56,11.2-5.89,18.72l16.43,0c-2.13,6.85-3.2,10.29-5.32,17.26H331Q344.1,540.81,358.48,498.09Z" transform="translate(-18.73 -198.44)"/><path class="cls-4" d="M447.26,498.05c-2.32,7-3.46,10.44-5.7,17.32l-13.3,0q-11.14,34.2-21.79,68.54H384.12q10.59-34.34,21.75-68.48l-13.24,0c2.27-6.9,3.43-10.37,5.78-17.42Z" transform="translate(-18.73 -198.44)"/><path class="cls-4" d="M555.68,498q-18.95,42.87-37.46,85.92H490.31c1.94-15.17,4.66-30.2,7.57-45.21-6.75,15.12-13.7,30.15-20.57,45.21H449.56c5.68-28.67,11.4-57.32,17.5-85.89h21.72Q485,513,481.39,528q-3.5,14.4-6.91,28.81c7.4-20,16.25-39.4,25.13-58.75h23.21c-2.15,9.42-4.46,18.8-6.71,28.2q-4,16.28-7.91,32.55Q520.13,528,534,498Z" transform="translate(-18.73 -198.44)"/><path class="cls-4" d="M582.44,498c-9.26,28.62-18.3,57.3-27.51,85.93H532.58c9.16-28.64,18.22-57.32,27.51-85.92Z" transform="translate(-18.73 -198.44)"/><path class="cls-4" d="M591.41,498h22.52q9.12,0,13.59,1.4t6.07,4.05a10.32,10.32,0,0,1,1.29,6.43A61.25,61.25,0,0,1,632,521.61L629.67,529c-1.73,5.44-3.56,9.43-5.49,11.94a18.35,18.35,0,0,1-8.1,5.81,34.72,34.72,0,0,1-12.54,2.06h-6q-5.58,17.55-11.27,35.07H563.9C573.13,555.3,582.16,526.62,591.41,498Zm17.7,14.46c-2.76,8.63-4.14,13-6.9,21.66.63,0,1.17,0,1.63,0a7,7,0,0,0,4.77-1.52q1.67-1.51,3.18-6.25c.89-2.8,1.33-4.2,2.22-7s1.07-4.78.42-5.65S612,512.46,609.11,512.46Z" transform="translate(-18.73 -198.44)"/><path class="cls-4" d="M646,498h37.27c-2.14,6.66-3.2,10-5.34,16.77l-14.94,0-5.1,16.1,14,0c-2,6.5-3.08,9.76-5.17,16.34l-14,0c-2.42,7.59-3.64,11.41-6.12,19.1l16.43,0c-2.27,7-3.42,10.54-5.78,17.62H618.49C627.82,555.33,636.81,526.62,646,498Z" transform="translate(-18.73 -198.44)"/><path class="cls-4" d="M730.58,523.25l-20.81.06,2-6.27q1.37-4.37,1-5.55c-.28-.79-1-1.19-2.28-1.19a4.83,4.83,0,0,0-3.57,1.62,12.38,12.38,0,0,0-2.58,4.89c-.88,2.81-1.14,5-.84,6.37s1.86,3.16,4.7,5.18q12.2,8.75,14.27,14.45c1.38,3.8.73,9.94-2,18.53-2,6.24-4.27,10.88-6.69,13.86s-6,5.5-10.83,7.53a39,39,0,0,1-15.36,3q-9,0-14.14-3.5c-3.46-2.33-5.25-5.3-5.38-8.88s.86-8.67,3-15.19c.73-2.28,1.09-3.42,1.82-5.69l20.81,0c-1.35,4.22-2,6.35-3.41,10.61q-1.59,4.92-1.19,6.33c.28.94,1.16,1.41,2.65,1.41A5.22,5.22,0,0,0,695.5,569a14.11,14.11,0,0,0,2.82-5.32q2.5-7.74,1.17-10.08c-.89-1.57-3.59-4.19-8-7.84a65.3,65.3,0,0,1-8.53-8,13,13,0,0,1-2.32-6.86q-.4-4.38,1.73-11.13c2-6.49,4.37-11.18,7-14.15a26.08,26.08,0,0,1,10.36-6.93,39.48,39.48,0,0,1,14.38-2.49c5.81,0,10.46.9,14,2.7s5.51,4.07,6,6.83-.35,7.44-2.45,14.15Z" transform="translate(-18.73 -198.44)"/><path class="cls-8" d="M672.62,552.21s-11.1,22-.53,29.59c9.06,6,30.2,6,40.77-6s10.57-28.69,10.57-28.69,0-8.75-12.08-16.3c0,0,9.06,10.26,7.55,19.32s-7.55,24.16-19.63,28.69a27.88,27.88,0,0,1-17.71.46,9.56,9.56,0,0,1-6.93-8.65c-1-6.91,3.5-13.63,6.52-18.16Z" transform="translate(-18.73 -198.44)"/><polygon class="cls-8" points="536.27 385.48 563.67 299.41 557.1 304.84 532.57 380.95 518.98 380.95 513.84 385.48 536.27 385.48"/><polygon class="cls-8" points="499.35 385.48 536.95 299.56 529.55 304.84 496.33 380.34 478.21 380.34 471.71 385.4 499.35 385.48"/><polygon class="cls-8" points="458.58 385.48 479.07 340.33 471.52 345.61 455.56 380.34 437.44 380.34 430.94 385.4 458.58 385.48"/><polygon class="cls-8" points="297.84 385.55 335.29 299.63 327.89 304.92 294.67 380.42 276.55 380.42 270.06 385.48 297.84 385.55"/><polygon class="cls-8" points="256.92 385.55 277.08 340.86 270.06 345.69 253.9 380.42 235.78 380.42 229.29 385.48 256.92 385.55"/><path class="cls-8" d="M406.49,583.92l21.79-68.64,13.24.08L447.29,498l-7.06,4.65-2.34,7.66-12-.15a.7.7,0,0,0-.69.49l-21.85,68.13H391.24l-7.18,5.14Z" transform="translate(-18.73 -198.44)"/><polygon class="cls-8" points="374.02 316.92 380.06 311.87 393.65 311.87 387.61 316.92 374.02 316.92"/><polygon class="cls-8" points="587.82 309.41 590.18 313.98 583.72 335.68 581.88 328.68 587.82 309.41"/><path class="cls-8" d="M586.25,583.92l11.25-35.11s9.66,1.28,17.37-1.59c5.88-1.66,9.66-5.62,11.92-10.72l4.08-11.57,3.25-11.08s3.24-10.57-4.31-13.59c0,0,1.51,7.55,0,12.08l-6.61,18.52a17.49,17.49,0,0,1-6.79,8.85c-4.34,2.83-11.51,5.1-22.84,2.83l-11.32,36.24H570.92l-7,5.14Z" transform="translate(-18.73 -198.44)"/><polygon class="cls-8" points="377.04 299.56 371.23 317.07 356.28 317.11 350.95 333.46 348.35 325.98 352.88 312.39 367.98 312.17 371 303.33 377.04 299.56"/><polygon class="cls-8" points="364.93 333.23 359.63 349.43 346.19 349.46 339.82 368.26 337.78 359.85 342.79 344.75 356.38 344.52 359.4 335.69 364.93 333.23"/><polygon class="cls-8" points="312.26 385.48 318.98 380.76 347.67 380.53 351.67 368.26 356.35 368.11 350.92 385.44 337.48 385.47 312.26 385.48"/><polygon class="cls-8" points="653.12 332.55 647.93 348.75 634.38 348.78 628.01 367.58 625.97 359.17 630.99 344.07 644.58 343.84 647.6 335.01 653.12 332.55"/><polygon class="cls-8" points="599.85 385.48 606.57 380.76 635.26 380.53 639.75 367.89 644.27 367.89 638.51 385.44 625.07 385.47 599.85 385.48"/><polygon class="cls-8" points="664.54 299.48 659.18 316.33 644.27 316.32 639.14 332.55 636.15 325.27 640.68 311.68 655.78 311.45 658.8 302.62 664.54 299.48"/><path class="cls-9" d="M709.84,523.27l6-4.89h9.06a26.84,26.84,0,0,0,4.69-8.93,10,10,0,0,0-6.44-12.16,14.29,14.29,0,0,0-2.78-.65s12.08.6,13.82,9.66c0,0,1.28,6-3.63,17Z" transform="translate(-18.73 -198.44)"/></g></svg>